<svg width="36" height="29" viewBox="0 0 36 29" fill="none" xmlns="http://www.w3.org/2000/svg">
<g clip-path="url(#clip0_577_2658)">
<path fill-rule="evenodd" clip-rule="evenodd" d="M17.1571 3.36295C15.4828 4.1378 14.1088 4.79355 14.1039 4.82025C14.0913 4.88904 17.396 6.69683 17.5266 6.6924C17.5859 6.69052 18.0516 6.498 18.5613 6.26485L19.488 5.84088L20.3201 6.30364L21.1523 6.7665L22.7911 6.10406C25.2605 5.10583 25.5181 4.99643 25.4882 4.95974C25.4485 4.91094 24.7157 4.48297 22.7227 3.34485C21.7595 2.79479 20.8257 2.25553 20.6475 2.14634C20.4692 2.03704 20.296 1.94925 20.2624 1.95095C20.2288 1.95265 18.8314 2.58811 17.1571 3.36295ZM9.81764 6.7414L8.07607 7.54133L7.39371 11.0518C7.0184 12.9826 6.73214 14.5622 6.75775 14.5622C6.78335 14.5622 7.62778 14.232 8.63448 13.8283L10.4649 13.0943L11.1841 9.39415L11.9237 9.83282C12.4935 10.1705 13.0641 10.5075 13.6349 10.8439L14.6066 11.4164L15.1299 11.2036C15.4581 11.0699 15.786 10.935 16.1135 10.7987C16.3666 10.6929 16.9864 10.4418 17.4908 10.2406C17.9952 10.0394 18.4653 9.83687 18.5353 9.7908C18.6283 9.7295 17.7429 9.19582 15.2602 7.81676C13.3889 6.77723 11.7907 5.92997 11.7085 5.93407C11.6264 5.93817 10.7756 6.30141 9.81764 6.7414ZM25.3839 6.96601C24.2111 7.44207 23.2471 7.85065 23.2416 7.87394C23.2361 7.89722 23.7583 8.23901 24.4023 8.63336C25.0462 9.02783 25.569 9.37161 25.5639 9.39752C25.5589 9.42342 24.8627 9.72501 24.0168 10.068C23.1707 10.4109 21.0321 11.2794 19.264 11.9981L13.3397 14.4059C11.8495 15.0116 10.5062 15.5576 10.3546 15.6193C7.31034 16.8583 6.47301 17.2021 6.35574 17.2611C6.23778 17.3205 6.14662 17.6656 5.79091 19.3981L5.36662 21.4645L6.64788 22.17L7.92907 22.8756L10.0642 22.009C11.2387 21.5325 12.2043 21.1176 12.2103 21.087C12.2162 21.0564 12.041 20.9294 11.8211 20.8043C11.6012 20.6792 11.1505 20.4025 10.8198 20.189C10.4891 19.9755 10.1561 19.7797 10.0797 19.7537C10.0033 19.7278 9.94663 19.6825 9.95367 19.6529C9.96077 19.6234 10.9049 19.2219 12.0517 18.7603C14.279 17.8642 15.9845 17.1734 19.6472 15.6842C21.2849 15.0183 22.9228 14.3532 24.5607 13.688C26.0003 13.1036 27.6746 12.4213 28.2815 12.1716L29.3848 11.7175L29.8136 9.62762L30.2425 7.53784L28.944 6.817C28.2298 6.42053 27.6163 6.09716 27.5806 6.09836C27.545 6.09946 26.5565 6.48989 25.3839 6.96601ZM28.4576 14.5054C28.2259 14.6064 27.7705 14.7958 27.4454 14.9259C27.1203 15.0562 26.5028 15.3067 26.0729 15.4829L25.2917 15.8031L24.9187 17.6377C24.7135 18.6468 24.5159 19.4679 24.4794 19.4626C24.3967 19.4502 23.1802 18.7755 21.9634 18.0668C21.0851 17.5553 21.0276 17.535 20.7763 17.6462C20.6309 17.7105 19.7695 18.058 18.8619 18.4187C17.9543 18.7794 17.1799 19.0981 17.1407 19.1269C17.1018 19.1556 18.6138 20.0475 20.501 21.1089L23.9323 23.0387L25.7179 22.2174C26.7 21.7659 27.5404 21.3539 27.5855 21.3021C27.6869 21.1856 29.0176 14.3055 28.9368 14.3148C28.9049 14.3185 28.6892 14.4043 28.4576 14.5054ZM17.8837 22.5809C17.5786 22.6993 17.2736 22.8179 16.9686 22.9365C16.0475 23.2961 16.212 23.308 15.2949 22.8159C14.6841 22.4881 14.413 22.3869 14.2773 22.436C14.1755 22.4728 13.2911 22.8307 12.3121 23.2313C11.3331 23.6319 10.5008 23.9595 10.4626 23.9595C10.0844 23.9595 10.6419 24.3262 12.8352 25.5207L15.4075 26.9215L16.7165 26.3447C17.4364 26.0273 18.8877 25.3919 19.9415 24.9328C20.9953 24.4734 21.848 24.0856 21.8362 24.071C21.8244 24.0564 21.095 23.6512 20.2152 23.1706L18.6155 22.2969L17.8837 22.5809Z" fill="#F2F2F2"/>
</g>
<defs>
<clipPath id="clip0_577_2658">
<rect width="30.2623" height="29.2536" fill="white" transform="matrix(1 0 -0.190809 0.981627 5.65967 0.0837402)"/>
</clipPath>
</defs>
</svg>
